<svg height="512" viewBox="0 0 64 64" width="512" xmlns="http://www.w3.org/2000/svg"><path d="m61.9 54.553-5.9-11.789v-31.764a3 3 0 0 0 -3-3h-13v2h13a1 1 0 0 1 1 1v31h-44v-31a1 1 0 0 1 1-1h13v-2h-13a3 3 0 0 0 -3 3v31.764l-5.895 11.789a1 1 0 0 0 -.105.447v5a2 2 0 0 0 2 2h56a2 2 0 0 0 2-2v-5a1 1 0 0 0 -.1-.447zm-7.518-10.553 5 10h-54.764l5-10zm-25.382 12h6v1h-6zm-25 4v-4h23v1a2 2 0 0 0 2 2h6a2 2 0 0 0 2-2v-1h23v4z"/><path d="m10 50h2v2h-2z"/><path d="m14 50h2v2h-2z"/><path d="m18 50h28v2h-28z"/><path d="m48 50h2v2h-2z"/><path d="m52 50h2v2h-2z"/><path d="m15 46h2v2h-2z"/><path d="m11 46h2v2h-2z"/><path d="m19 46h2v2h-2z"/><path d="m23 46h2v2h-2z"/><path d="m27 46h2v2h-2z"/><path d="m31 46h2v2h-2z"/><path d="m35 46h2v2h-2z"/><path d="m39 46h2v2h-2z"/><path d="m43 46h2v2h-2z"/><path d="m47 46h2v2h-2z"/><path d="m51 46h2v2h-2z"/><path d="m22 14v-2h-9a1 1 0 0 0 -1 1v26a1 1 0 0 0 1 1h38a1 1 0 0 0 1-1v-26a1 1 0 0 0 -1-1h-9v2h8v24h-36v-24z"/><path d="m24 19a2.972 2.972 0 0 0 .573 1.749l-1.873 1.251h-.7a5.006 5.006 0 0 0 -5 5v.184a3 3 0 0 0 -2 2.816h2a1 1 0 0 1 2 0h2a3 3 0 0 0 -2-2.816v-.184a3 3 0 0 1 3-3v7a1 1 0 0 0 .105.447l2 4a1 1 0 0 0 .895.553h14a1 1 0 0 0 .9-.553l2-4a1 1 0 0 0 .1-.447v-7a3 3 0 0 1 3 3v.184a3 3 0 0 0 -2 2.816h2a1 1 0 0 1 2 0h2a3 3 0 0 0 -2-2.816v-.184a5.006 5.006 0 0 0 -5-5h-.7l-1.876-1.251a2.972 2.972 0 0 0 .576-1.749v-6a3 3 0 0 0 -3-3h-4v-2.184a3 3 0 1 0 -2 0v2.184h-4a3 3 0 0 0 -3 3zm8-15a1 1 0 1 1 -1 1 1 1 0 0 1 1-1zm6.382 30h-12.764l-1-2h14.764zm-10.24-4a3.981 3.981 0 0 1 7.716 0zm11.858 0h-2.09a5.993 5.993 0 0 0 -11.82 0h-2.09v-6.465l2.3-1.535h11.4l2.3 1.535zm-6-10h-4v-1h4zm-8-7a1 1 0 0 1 1-1h10a1 1 0 0 1 1 1v6a1 1 0 0 1 -1 1h-1v-2a1 1 0 0 0 -1-1h-6a1 1 0 0 0 -1 1v2h-1a1 1 0 0 1 -1-1z"/><path d="m28 14h2v2h-2z"/><path d="m34 14h2v2h-2z"/><path d="m58 30h2v2h-2z"/><path d="m4 30h2v2h-2z"/><path d="m4 24h2v2h-2z"/><path d="m4 18h2v2h-2z"/><path d="m58 24h2v2h-2z"/><path d="m58 18h2v2h-2z"/><path d="m57 5h2v2h-2z"/><path d="m5 5h2v2h-2z"/></svg>