<svg height="512" viewBox="0 0 64 64" width="512" xmlns="http://www.w3.org/2000/svg"><path d="m30 19h4v1h-4z"/><path d="m40 23.535-2.3-1.535h-11.4l-2.3 1.535v6.465h2.09a5.993 5.993 0 0 1 11.82 0h2.09z"/><path d="m32 27a4 4 0 0 0 -3.858 3h7.716a4 4 0 0 0 -3.858-3z"/><path d="m25.618 34h12.764l1-2h-14.764z"/><path d="m53 10h-16a3.009 3.009 0 0 1 3 3v6a3.024 3.024 0 0 1 -.57 1.75l1.87 1.25h.7a5 5 0 0 1 5 5v.18a3.01 3.01 0 0 1 2 2.82h-2a1 1 0 0 0 -2 0h-2a3.01 3.01 0 0 1 2-2.82v-.18a3.009 3.009 0 0 0 -3-3v7a1 1 0 0 1 -.11.45l-2 4a.977.977 0 0 1 -.89.55h-14a.977.977 0 0 1 -.89-.55l-2-4a1 1 0 0 1 -.11-.45v-7a3.009 3.009 0 0 0 -3 3v.18a3.01 3.01 0 0 1 2 2.82h-2a1 1 0 0 0 -2 0h-2a3.01 3.01 0 0 1 2-2.82v-.18a5 5 0 0 1 5-5h.7l1.87-1.25a3.024 3.024 0 0 1 -.57-1.75v-6a3.009 3.009 0 0 1 3-3h-16a1 1 0 0 0 -1 1v31h44v-31a1 1 0 0 0 -1-1zm-1 29a1 1 0 0 1 -1 1h-38a1 1 0 0 1 -1-1v-26a1 1 0 0 1 1-1h9v2h-8v24h36v-24h-8v-2h9a1 1 0 0 1 1 1z"/><path d="m37 12h-10a1 1 0 0 0 -1 1v6a1 1 0 0 0 1 1h1v-2a1 1 0 0 1 1-1h6a1 1 0 0 1 1 1v2h1a1 1 0 0 0 1-1v-6a1 1 0 0 0 -1-1zm-7 4h-2v-2h2zm6 0h-2v-2h2z"/><path d="m4 60h56v-4h-23v1a2 2 0 0 1 -2 2h-6a2 2 0 0 1 -2-2v-1h-23z"/><path d="m29 56h6v1h-6z"/><path d="m54.38 44h-44.76l-5 10h54.76zm-11.38 2h2v2h-2zm-4 0h2v2h-2zm-4 0h2v2h-2zm-4 0h2v2h-2zm-4 0h2v2h-2zm-4 0h2v2h-2zm-4 0h2v2h-2zm-7 6h-2v-2h2zm1-4h-2v-2h2zm3 4h-2v-2h2zm1-4h-2v-2h2zm29 4h-28v-2h28zm1-6h2v2h-2zm3 6h-2v-2h2zm1-6h2v2h-2zm3 6h-2v-2h2z"/><path d="m58 30h2v2h-2z"/><path d="m4 30h2v2h-2z"/><path d="m4 24h2v2h-2z"/><path d="m4 18h2v2h-2z"/><path d="m58 24h2v2h-2z"/><path d="m58 18h2v2h-2z"/><path d="m57 5h2v2h-2z"/><path d="m5 5h2v2h-2z"/><path d="m34 5a2 2 0 1 0 -3 1.721v1.279h2v-1.279a2 2 0 0 0 1-1.721z"/></svg>